<svg width="183" height="69" viewBox="0 0 183 69" fill="none" xmlns="http://www.w3.org/2000/svg">
<path d="M57.5 43.2083C59.1483 43.2083 60.5379 43.7167 61.6688 44.7333C62.7996 45.75 63.3554 46.9361 63.3363 48.2917L40.25 55.9167L20.125 50.8333V27.9583H25.7313L46.6325 34.7954C48.1275 35.3207 48.875 36.2696 48.875 37.6421C48.875 38.4385 48.5492 39.1332 47.8975 39.7263C47.2458 40.3193 46.4217 40.6328 45.425 40.6667H37.375L32.3438 38.9638L31.395 41.3529L37.375 43.2083H57.5ZM46 8.20959C48.0317 6.12543 50.6192 5.08334 53.7625 5.08334C56.3692 5.08334 58.5733 5.93057 60.375 7.62501C62.1767 9.31945 63.135 11.2681 63.25 13.4708C63.25 15.2161 62.2917 17.3003 60.375 19.7233C58.4583 22.1464 56.5704 24.1713 54.7113 25.7979C52.8521 27.4246 49.9483 29.8392 46 33.0417C42.0133 29.8392 39.0808 27.4246 37.2025 25.7979C35.3242 24.1713 33.4363 22.1464 31.5388 19.7233C29.6413 17.3003 28.7117 15.2161 28.75 13.4708C28.75 11.1664 29.6796 9.21779 31.5388 7.62501C33.3979 6.03223 35.6404 5.18501 38.2663 5.08334C41.3329 5.08334 43.9108 6.12543 46 8.20959ZM2.82901 27.9583H14.375V55.9167H2.82901V27.9583Z" fill="white"/>
<path d="M99.9432 39.125C99.8371 38.1326 99.3902 37.3598 98.6023 36.8068C97.822 36.2538 96.8068 35.9773 95.5568 35.9773C94.678 35.9773 93.9242 36.1098 93.2955 36.375C92.6667 36.6402 92.1856 37 91.8523 37.4545C91.5189 37.9091 91.3485 38.428 91.3409 39.0114C91.3409 39.4962 91.4508 39.9167 91.6705 40.2727C91.8977 40.6288 92.2045 40.9318 92.5909 41.1818C92.9773 41.4242 93.4053 41.6288 93.875 41.7955C94.3447 41.9621 94.8182 42.1023 95.2955 42.2159L97.4773 42.7614C98.3561 42.9659 99.2008 43.2424 100.011 43.5909C100.83 43.9394 101.561 44.3788 102.205 44.9091C102.856 45.4394 103.371 46.0795 103.75 46.8295C104.129 47.5795 104.318 48.4583 104.318 49.4659C104.318 50.8295 103.97 52.0303 103.273 53.0682C102.576 54.0985 101.568 54.9053 100.25 55.4886C98.9394 56.0644 97.3523 56.3523 95.4886 56.3523C93.678 56.3523 92.1061 56.072 90.7727 55.5114C89.447 54.9508 88.4091 54.1326 87.6591 53.0568C86.9167 51.9811 86.5152 50.6705 86.4545 49.125H90.6023C90.6629 49.9356 90.9129 50.6098 91.3523 51.1477C91.7917 51.6856 92.3636 52.0871 93.0682 52.3523C93.7803 52.6174 94.5758 52.75 95.4545 52.75C96.3712 52.75 97.1742 52.6136 97.8636 52.3409C98.5606 52.0606 99.1061 51.6742 99.5 51.1818C99.8939 50.6818 100.095 50.0985 100.102 49.4318C100.095 48.8258 99.9167 48.3258 99.5682 47.9318C99.2197 47.5303 98.7311 47.197 98.1023 46.9318C97.4811 46.6591 96.7538 46.4167 95.9205 46.2045L93.2727 45.5227C91.3561 45.0303 89.8409 44.2841 88.7273 43.2841C87.6212 42.2765 87.0682 40.9394 87.0682 39.2727C87.0682 37.9015 87.4394 36.7008 88.1818 35.6705C88.9318 34.6402 89.9508 33.8409 91.2386 33.2727C92.5265 32.697 93.9848 32.4091 95.6136 32.4091C97.2652 32.4091 98.7121 32.697 99.9545 33.2727C101.205 33.8409 102.186 34.6326 102.898 35.6477C103.61 36.6553 103.977 37.8144 104 39.125H99.9432ZM115.963 56H108.077V32.7273H116.122C118.433 32.7273 120.418 33.1932 122.077 34.125C123.743 35.0492 125.024 36.3788 125.918 38.1136C126.812 39.8485 127.259 41.9242 127.259 44.3409C127.259 46.7652 126.808 48.8485 125.906 50.5909C125.012 52.3333 123.721 53.6705 122.031 54.6023C120.349 55.5341 118.327 56 115.963 56ZM112.293 52.3523H115.759C117.38 52.3523 118.732 52.0568 119.815 51.4659C120.899 50.8674 121.713 49.9773 122.259 48.7955C122.804 47.6061 123.077 46.1212 123.077 44.3409C123.077 42.5606 122.804 41.0833 122.259 39.9091C121.713 38.7273 120.906 37.8447 119.838 37.2614C118.777 36.6705 117.459 36.375 115.884 36.375H112.293V52.3523ZM129.21 36.2614V32.7273H147.778V36.2614H140.585V56H136.403V36.2614H129.21ZM171.122 44.3636C171.122 46.8712 170.652 49.0189 169.713 50.8068C168.781 52.5871 167.509 53.9508 165.895 54.8977C164.289 55.8447 162.467 56.3182 160.429 56.3182C158.391 56.3182 156.565 55.8447 154.952 54.8977C153.346 53.9432 152.073 52.5758 151.134 50.7955C150.202 49.0076 149.736 46.8636 149.736 44.3636C149.736 41.8561 150.202 39.7121 151.134 37.9318C152.073 36.1439 153.346 34.7765 154.952 33.8295C156.565 32.8826 158.391 32.4091 160.429 32.4091C162.467 32.4091 164.289 32.8826 165.895 33.8295C167.509 34.7765 168.781 36.1439 169.713 37.9318C170.652 39.7121 171.122 41.8561 171.122 44.3636ZM166.884 44.3636C166.884 42.5985 166.607 41.1098 166.054 39.8977C165.509 38.678 164.751 37.7576 163.781 37.1364C162.812 36.5076 161.694 36.1932 160.429 36.1932C159.164 36.1932 158.046 36.5076 157.077 37.1364C156.107 37.7576 155.346 38.678 154.793 39.8977C154.247 41.1098 153.974 42.5985 153.974 44.3636C153.974 46.1288 154.247 47.6212 154.793 48.8409C155.346 50.053 156.107 50.9735 157.077 51.6023C158.046 52.2235 159.164 52.5341 160.429 52.5341C161.694 52.5341 162.812 52.2235 163.781 51.6023C164.751 50.9735 165.509 50.053 166.054 48.8409C166.607 47.6212 166.884 46.1288 166.884 44.3636Z" fill="white"/>
</svg>
