<svg width="23" height="22" viewBox="0 0 23 22" fill="none" xmlns="http://www.w3.org/2000/svg">
<mask id="path-1-inside-1_386_200" fill="white">
<path d="M13.5648 0.000213119C14.3195 -0.0089549 15.0479 0.27799 15.5937 0.799412C16.1397 1.32081 16.4596 2.03536 16.485 2.78987C16.5105 3.54417 16.2394 4.27861 15.7299 4.83576L11.6838 9.24019C11.6011 9.32993 11.4846 9.38103 11.3625 9.38103C11.2404 9.38103 11.124 9.32993 11.0412 9.24019L6.99087 4.83576C6.47511 4.27181 6.20435 3.52625 6.23811 2.76275C6.27166 1.99946 6.60679 1.28041 7.17014 0.764107H7.17872C7.74267 0.248153 8.48843 -0.0228079 9.25193 0.01075C10.0156 0.044302 10.7346 0.379818 11.2512 0.943182L11.3604 1.061L11.4697 0.938114C12.0084 0.349401 12.7668 0.00975117 13.5648 0.000213119ZM13.5502 0.910773C13.0096 0.909408 12.4913 1.12554 12.1121 1.51082L11.6752 1.98269C11.5925 2.07242 11.476 2.12353 11.3539 2.12353C11.2318 2.12353 11.1153 2.07242 11.0326 1.98269L10.5957 1.51082C10.1041 1.01085 9.38742 0.803108 8.70447 0.962858C8.02173 1.12262 7.47161 1.62668 7.25279 2.29284C7.03412 2.95921 7.17827 3.69129 7.63337 4.22462L7.64624 4.25974L11.3603 8.2793L15.0744 4.22463C15.4078 3.83352 15.5787 3.32945 15.552 2.81624C15.5252 2.30284 15.3029 1.81924 14.9305 1.46499C14.5581 1.11054 14.0642 0.912171 13.5502 0.910773ZM8.51347 1.42887C8.63968 1.42809 8.76023 1.48193 8.84372 1.57654C9.00602 1.75405 8.99431 2.02968 8.81739 2.19257C8.61666 2.37203 8.49553 2.62406 8.48089 2.89284C8.46607 3.16164 8.55892 3.42517 8.73878 3.62552C8.82578 3.70921 8.87415 3.82508 8.87279 3.94563C8.87143 4.06619 8.82012 4.18088 8.73137 4.26243C8.64242 4.34396 8.52381 4.38512 8.40345 4.37634C8.2833 4.36737 8.17191 4.30904 8.09622 4.21521C7.75876 3.84595 7.58162 3.35789 7.60387 2.85811C7.62611 2.35834 7.84595 1.88783 8.21481 1.55C8.29518 1.47295 8.40208 1.42965 8.51347 1.42887ZM20.9958 4.78287C21.4556 4.78873 21.8947 4.97541 22.2178 5.30272C22.5406 5.63005 22.7216 6.07151 22.7214 6.53143V13.9292C22.7228 14.5411 22.4899 15.1306 22.0703 15.5761L20.3053 17.4554C20.174 17.5949 20.1005 17.7792 20.0997 17.971V18.5521C20.1428 18.5825 20.1836 18.6163 20.2218 18.6527C20.4223 18.8535 20.5357 19.1252 20.5367 19.4088V21.563C20.5367 21.8043 20.341 21.9999 20.0997 21.9999C19.8584 21.9999 19.6627 21.8043 19.6627 21.563V19.4088C19.6629 19.3568 19.6423 19.3066 19.6054 19.2698C19.5687 19.2327 19.5186 19.2118 19.4665 19.2118H13.3047C13.2526 19.2116 13.2027 19.2323 13.1656 19.269C13.1294 19.3049 13.1089 19.3536 13.1085 19.4047V21.563C13.1085 21.8043 12.9128 21.9999 12.6715 21.9999C12.4302 21.9999 12.2346 21.8043 12.2346 21.563V19.4088C12.2356 19.1252 12.3489 18.8535 12.5494 18.6527C12.5877 18.6163 12.6284 18.5825 12.6715 18.5521V16.3673C12.6762 15.1823 13.1619 14.0501 14.0173 13.23L17.2902 10.1142C17.596 9.821 18.0047 9.65988 18.4282 9.66573C18.8517 9.67139 19.2558 9.84363 19.5535 10.145C19.8623 10.4538 20.0357 10.8728 20.0357 11.3094C20.0357 11.7461 19.8623 12.1651 19.5535 12.4739L17.5743 14.4538L16.9583 13.8376L18.9373 11.8577C19.082 11.7127 19.1632 11.5163 19.1632 11.3115C19.1632 11.1068 19.082 10.9104 18.9373 10.7652C18.7982 10.6277 18.6106 10.5507 18.4151 10.5507C18.2194 10.5507 18.0318 10.6277 17.8927 10.7652L14.6208 13.8811C13.9406 14.5338 13.5528 15.4332 13.5454 16.3758V18.3292H19.2258V17.958C19.2232 17.5429 19.3795 17.1426 19.6627 16.8391L21.4105 14.9651C21.6829 14.6879 21.8391 14.3175 21.8475 13.9291V6.53136C21.8475 6.21906 21.6809 5.93056 21.4105 5.77451C21.1402 5.61845 20.807 5.61845 20.5366 5.77451C20.2663 5.93056 20.0997 6.21907 20.0997 6.53136V8.71612C20.0997 8.95742 19.904 9.15308 19.6627 9.15308C19.4214 9.15308 19.2258 8.95742 19.2258 8.71612V6.53136C19.2254 6.06768 19.4093 5.62275 19.737 5.29481C20.0704 4.96124 20.5244 4.77663 20.9958 4.78287ZM1.72098 4.78365C2.18914 4.77663 2.64052 4.95766 2.97411 5.28613C3.30769 5.61459 3.49535 6.06325 3.49535 6.53147V8.71623C3.49535 8.95753 3.2997 9.15318 3.0584 9.15318C2.8171 9.15318 2.62145 8.95753 2.62145 8.71623V6.53147C2.62164 6.3007 2.53054 6.0791 2.36805 5.91524C2.20439 5.7504 1.98201 5.65735 1.74968 5.65677C1.51735 5.65619 1.29439 5.74826 1.13015 5.91231C0.965708 6.07637 0.873446 6.29913 0.87364 6.53144V13.9292C0.87286 14.3189 1.02111 14.6942 1.28836 14.9779L3.03617 16.8521C3.31941 17.1556 3.47566 17.5559 3.47312 17.971V18.3293H9.17598V16.3759C9.17384 15.4298 8.78545 14.5257 8.10058 13.8728L4.82867 10.7569C4.68959 10.6194 4.50193 10.5422 4.30628 10.5422C4.11082 10.5422 3.92316 10.6194 3.78408 10.7569C3.63934 10.9019 3.5582 11.0983 3.5582 11.3032C3.5582 11.5078 3.63934 11.7042 3.78408 11.8494L5.76305 13.842L5.14702 14.4582L3.16785 12.4783C2.85906 12.1693 2.68565 11.7505 2.68565 11.3137C2.68565 10.877 2.85907 10.4582 3.16785 10.1494C3.46612 9.8486 3.87067 9.67733 4.29419 9.67265C4.71769 9.66777 5.12615 9.82987 5.43127 10.1236L8.70412 13.2387C9.5595 14.0588 10.0452 15.1909 10.0499 16.376V18.5607C10.093 18.5912 10.1338 18.6247 10.172 18.6614C10.3706 18.8598 10.4835 19.1282 10.4868 19.4089V21.563C10.4868 21.8043 10.2912 22 10.0499 22C9.80859 22 9.61294 21.8043 9.61294 21.563V19.4089C9.61313 19.3568 9.59245 19.3067 9.55559 19.2698C9.51891 19.2327 9.46878 19.2119 9.4167 19.2119H3.25491C3.20283 19.2117 3.15289 19.2324 3.11583 19.269C3.07955 19.3049 3.05906 19.3537 3.05867 19.4048V21.563C3.05867 21.8043 2.86302 22 2.62172 22C2.38042 22 2.18477 21.8043 2.18477 21.563V19.4089C2.18574 19.1253 2.29908 18.8535 2.49961 18.6528C2.53784 18.6163 2.57861 18.5826 2.62172 18.5521V17.971C2.62094 17.7793 2.5474 17.5949 2.41612 17.4555L0.668308 15.5815C0.241108 15.1371 0.00174332 14.5452 -3.8147e-06 13.9292V6.53149C-3.8147e-06 6.07249 0.180435 5.63181 0.502466 5.30492C0.824522 4.97779 1.2622 4.79069 1.72098 4.78365Z"/>
</mask>
<path d="M13.5648 0.000213119C14.3195 -0.0089549 15.0479 0.27799 15.5937 0.799412C16.1397 1.32081 16.4596 2.03536 16.485 2.78987C16.5105 3.54417 16.2394 4.27861 15.7299 4.83576L11.6838 9.24019C11.6011 9.32993 11.4846 9.38103 11.3625 9.38103C11.2404 9.38103 11.124 9.32993 11.0412 9.24019L6.99087 4.83576C6.47511 4.27181 6.20435 3.52625 6.23811 2.76275C6.27166 1.99946 6.60679 1.28041 7.17014 0.764107H7.17872C7.74267 0.248153 8.48843 -0.0228079 9.25193 0.01075C10.0156 0.044302 10.7346 0.379818 11.2512 0.943182L11.3604 1.061L11.4697 0.938114C12.0084 0.349401 12.7668 0.00975117 13.5648 0.000213119ZM13.5502 0.910773C13.0096 0.909408 12.4913 1.12554 12.1121 1.51082L11.6752 1.98269C11.5925 2.07242 11.476 2.12353 11.3539 2.12353C11.2318 2.12353 11.1153 2.07242 11.0326 1.98269L10.5957 1.51082C10.1041 1.01085 9.38742 0.803108 8.70447 0.962858C8.02173 1.12262 7.47161 1.62668 7.25279 2.29284C7.03412 2.95921 7.17827 3.69129 7.63337 4.22462L7.64624 4.25974L11.3603 8.2793L15.0744 4.22463C15.4078 3.83352 15.5787 3.32945 15.552 2.81624C15.5252 2.30284 15.3029 1.81924 14.9305 1.46499C14.5581 1.11054 14.0642 0.912171 13.5502 0.910773ZM8.51347 1.42887C8.63968 1.42809 8.76023 1.48193 8.84372 1.57654C9.00602 1.75405 8.99431 2.02968 8.81739 2.19257C8.61666 2.37203 8.49553 2.62406 8.48089 2.89284C8.46607 3.16164 8.55892 3.42517 8.73878 3.62552C8.82578 3.70921 8.87415 3.82508 8.87279 3.94563C8.87143 4.06619 8.82012 4.18088 8.73137 4.26243C8.64242 4.34396 8.52381 4.38512 8.40345 4.37634C8.2833 4.36737 8.17191 4.30904 8.09622 4.21521C7.75876 3.84595 7.58162 3.35789 7.60387 2.85811C7.62611 2.35834 7.84595 1.88783 8.21481 1.55C8.29518 1.47295 8.40208 1.42965 8.51347 1.42887ZM20.9958 4.78287C21.4556 4.78873 21.8947 4.97541 22.2178 5.30272C22.5406 5.63005 22.7216 6.07151 22.7214 6.53143V13.9292C22.7228 14.5411 22.4899 15.1306 22.0703 15.5761L20.3053 17.4554C20.174 17.5949 20.1005 17.7792 20.0997 17.971V18.5521C20.1428 18.5825 20.1836 18.6163 20.2218 18.6527C20.4223 18.8535 20.5357 19.1252 20.5367 19.4088V21.563C20.5367 21.8043 20.341 21.9999 20.0997 21.9999C19.8584 21.9999 19.6627 21.8043 19.6627 21.563V19.4088C19.6629 19.3568 19.6423 19.3066 19.6054 19.2698C19.5687 19.2327 19.5186 19.2118 19.4665 19.2118H13.3047C13.2526 19.2116 13.2027 19.2323 13.1656 19.269C13.1294 19.3049 13.1089 19.3536 13.1085 19.4047V21.563C13.1085 21.8043 12.9128 21.9999 12.6715 21.9999C12.4302 21.9999 12.2346 21.8043 12.2346 21.563V19.4088C12.2356 19.1252 12.3489 18.8535 12.5494 18.6527C12.5877 18.6163 12.6284 18.5825 12.6715 18.5521V16.3673C12.6762 15.1823 13.1619 14.0501 14.0173 13.23L17.2902 10.1142C17.596 9.821 18.0047 9.65988 18.4282 9.66573C18.8517 9.67139 19.2558 9.84363 19.5535 10.145C19.8623 10.4538 20.0357 10.8728 20.0357 11.3094C20.0357 11.7461 19.8623 12.1651 19.5535 12.4739L17.5743 14.4538L16.9583 13.8376L18.9373 11.8577C19.082 11.7127 19.1632 11.5163 19.1632 11.3115C19.1632 11.1068 19.082 10.9104 18.9373 10.7652C18.7982 10.6277 18.6106 10.5507 18.4151 10.5507C18.2194 10.5507 18.0318 10.6277 17.8927 10.7652L14.6208 13.8811C13.9406 14.5338 13.5528 15.4332 13.5454 16.3758V18.3292H19.2258V17.958C19.2232 17.5429 19.3795 17.1426 19.6627 16.8391L21.4105 14.9651C21.6829 14.6879 21.8391 14.3175 21.8475 13.9291V6.53136C21.8475 6.21906 21.6809 5.93056 21.4105 5.77451C21.1402 5.61845 20.807 5.61845 20.5366 5.77451C20.2663 5.93056 20.0997 6.21907 20.0997 6.53136V8.71612C20.0997 8.95742 19.904 9.15308 19.6627 9.15308C19.4214 9.15308 19.2258 8.95742 19.2258 8.71612V6.53136C19.2254 6.06768 19.4093 5.62275 19.737 5.29481C20.0704 4.96124 20.5244 4.77663 20.9958 4.78287ZM1.72098 4.78365C2.18914 4.77663 2.64052 4.95766 2.97411 5.28613C3.30769 5.61459 3.49535 6.06325 3.49535 6.53147V8.71623C3.49535 8.95753 3.2997 9.15318 3.0584 9.15318C2.8171 9.15318 2.62145 8.95753 2.62145 8.71623V6.53147C2.62164 6.3007 2.53054 6.0791 2.36805 5.91524C2.20439 5.7504 1.98201 5.65735 1.74968 5.65677C1.51735 5.65619 1.29439 5.74826 1.13015 5.91231C0.965708 6.07637 0.873446 6.29913 0.87364 6.53144V13.9292C0.87286 14.3189 1.02111 14.6942 1.28836 14.9779L3.03617 16.8521C3.31941 17.1556 3.47566 17.5559 3.47312 17.971V18.3293H9.17598V16.3759C9.17384 15.4298 8.78545 14.5257 8.10058 13.8728L4.82867 10.7569C4.68959 10.6194 4.50193 10.5422 4.30628 10.5422C4.11082 10.5422 3.92316 10.6194 3.78408 10.7569C3.63934 10.9019 3.5582 11.0983 3.5582 11.3032C3.5582 11.5078 3.63934 11.7042 3.78408 11.8494L5.76305 13.842L5.14702 14.4582L3.16785 12.4783C2.85906 12.1693 2.68565 11.7505 2.68565 11.3137C2.68565 10.877 2.85907 10.4582 3.16785 10.1494C3.46612 9.8486 3.87067 9.67733 4.29419 9.67265C4.71769 9.66777 5.12615 9.82987 5.43127 10.1236L8.70412 13.2387C9.5595 14.0588 10.0452 15.1909 10.0499 16.376V18.5607C10.093 18.5912 10.1338 18.6247 10.172 18.6614C10.3706 18.8598 10.4835 19.1282 10.4868 19.4089V21.563C10.4868 21.8043 10.2912 22 10.0499 22C9.80859 22 9.61294 21.8043 9.61294 21.563V19.4089C9.61313 19.3568 9.59245 19.3067 9.55559 19.2698C9.51891 19.2327 9.46878 19.2119 9.4167 19.2119H3.25491C3.20283 19.2117 3.15289 19.2324 3.11583 19.269C3.07955 19.3049 3.05906 19.3537 3.05867 19.4048V21.563C3.05867 21.8043 2.86302 22 2.62172 22C2.38042 22 2.18477 21.8043 2.18477 21.563V19.4089C2.18574 19.1253 2.29908 18.8535 2.49961 18.6528C2.53784 18.6163 2.57861 18.5826 2.62172 18.5521V17.971C2.62094 17.7793 2.5474 17.5949 2.41612 17.4555L0.668308 15.5815C0.241108 15.1371 0.00174332 14.5452 -3.8147e-06 13.9292V6.53149C-3.8147e-06 6.07249 0.180435 5.63181 0.502466 5.30492C0.824522 4.97779 1.2622 4.79069 1.72098 4.78365Z" fill="white" stroke="#672557" stroke-width="80" mask="url(#path-1-inside-1_386_200)"/>
</svg>
