<svg width="97" height="24" viewBox="0 0 97 24" fill="none" xmlns="http://www.w3.org/2000/svg">
<mask id="path-1-inside-1_385_232" fill="white">
<path d="M87.5648 1.00021C88.3195 0.991045 89.0479 1.27799 89.5937 1.79941C90.1397 2.32081 90.4596 3.03536 90.485 3.78987C90.5105 4.54417 90.2394 5.27861 89.7299 5.83576L85.6838 10.2402C85.6011 10.3299 85.4846 10.381 85.3625 10.381C85.2404 10.381 85.124 10.3299 85.0412 10.2402L80.9909 5.83576C80.4751 5.27181 80.2043 4.52625 80.2381 3.76275C80.2717 2.99946 80.6068 2.28041 81.1701 1.76411H81.1787C81.7427 1.24815 82.4884 0.977192 83.2519 1.01075C84.0156 1.0443 84.7346 1.37982 85.2512 1.94318L85.3604 2.061L85.4697 1.93811C86.0084 1.3494 86.7668 1.00975 87.5648 1.00021ZM87.5502 1.91077C87.0096 1.90941 86.4913 2.12554 86.1121 2.51082L85.6752 2.98269C85.5925 3.07242 85.476 3.12353 85.3539 3.12353C85.2318 3.12353 85.1153 3.07242 85.0326 2.98269L84.5957 2.51082C84.1041 2.01085 83.3874 1.80311 82.7045 1.96286C82.0217 2.12262 81.4716 2.62668 81.2528 3.29284C81.0341 3.95921 81.1783 4.69129 81.6334 5.22462L81.6462 5.25974L85.3603 9.2793L89.0744 5.22463C89.4078 4.83352 89.5787 4.32945 89.552 3.81624C89.5252 3.30284 89.3029 2.81924 88.9305 2.46499C88.5581 2.11054 88.0642 1.91217 87.5502 1.91077ZM82.5135 2.42887C82.6397 2.42809 82.7602 2.48193 82.8437 2.57654C83.006 2.75405 82.9943 3.02968 82.8174 3.19257C82.6167 3.37203 82.4955 3.62406 82.4809 3.89284C82.4661 4.16164 82.5589 4.42517 82.7388 4.62552C82.8258 4.70921 82.8742 4.82508 82.8728 4.94563C82.8714 5.06619 82.8201 5.18088 82.7314 5.26243C82.6424 5.34396 82.5238 5.38512 82.4035 5.37634C82.2833 5.36737 82.1719 5.30904 82.0962 5.21521C81.7588 4.84595 81.5816 4.35789 81.6039 3.85811C81.6261 3.35834 81.846 2.88783 82.2148 2.55C82.2952 2.47295 82.4021 2.42965 82.5135 2.42887ZM94.9958 5.78287C95.4556 5.78873 95.8947 5.97541 96.2178 6.30272C96.5406 6.63005 96.7216 7.07151 96.7214 7.53143V14.9292C96.7228 15.5411 96.4899 16.1306 96.0703 16.5761L94.3053 18.4554C94.174 18.5949 94.1005 18.7792 94.0997 18.971V19.5521C94.1428 19.5825 94.1836 19.6163 94.2218 19.6527C94.4223 19.8535 94.5357 20.1252 94.5367 20.4088V22.563C94.5367 22.8043 94.341 22.9999 94.0997 22.9999C93.8584 22.9999 93.6627 22.8043 93.6627 22.563V20.4088C93.6629 20.3568 93.6423 20.3066 93.6054 20.2698C93.5687 20.2327 93.5186 20.2118 93.4665 20.2118H87.3047C87.2526 20.2116 87.2027 20.2323 87.1656 20.269C87.1294 20.3049 87.1089 20.3536 87.1085 20.4047V22.563C87.1085 22.8043 86.9128 22.9999 86.6715 22.9999C86.4302 22.9999 86.2346 22.8043 86.2346 22.563V20.4088C86.2356 20.1252 86.3489 19.8535 86.5494 19.6527C86.5877 19.6163 86.6284 19.5825 86.6715 19.5521V17.3673C86.6762 16.1823 87.1619 15.0501 88.0173 14.23L91.2902 11.1142C91.596 10.821 92.0047 10.6599 92.4282 10.6657C92.8517 10.6714 93.2558 10.8436 93.5535 11.145C93.8623 11.4538 94.0357 11.8728 94.0357 12.3094C94.0357 12.7461 93.8623 13.1651 93.5535 13.4739L91.5743 15.4538L90.9583 14.8376L92.9373 12.8577C93.082 12.7127 93.1632 12.5163 93.1632 12.3115C93.1632 12.1068 93.082 11.9104 92.9373 11.7652C92.7982 11.6277 92.6106 11.5507 92.4151 11.5507C92.2194 11.5507 92.0318 11.6277 91.8927 11.7652L88.6208 14.8811C87.9406 15.5338 87.5528 16.4332 87.5454 17.3758V19.3292H93.2258V18.958C93.2232 18.5429 93.3795 18.1426 93.6627 17.8391L95.4105 15.9651C95.6829 15.6879 95.8391 15.3175 95.8475 14.9291V7.53136C95.8475 7.21906 95.6809 6.93056 95.4105 6.77451C95.1402 6.61845 94.807 6.61845 94.5366 6.77451C94.2663 6.93056 94.0997 7.21907 94.0997 7.53136V9.71612C94.0997 9.95742 93.904 10.1531 93.6627 10.1531C93.4214 10.1531 93.2258 9.95742 93.2258 9.71612V7.53136C93.2254 7.06768 93.4093 6.62275 93.737 6.29481C94.0704 5.96124 94.5244 5.77663 94.9958 5.78287ZM75.721 5.78365C76.1891 5.77663 76.6405 5.95766 76.9741 6.28613C77.3077 6.61459 77.4954 7.06325 77.4954 7.53147V9.71623C77.4954 9.95753 77.2997 10.1532 77.0584 10.1532C76.8171 10.1532 76.6214 9.95753 76.6214 9.71623V7.53147C76.6216 7.3007 76.5305 7.0791 76.3681 6.91524C76.2044 6.7504 75.982 6.65735 75.7497 6.65677C75.5174 6.65619 75.2944 6.74826 75.1302 6.91231C74.9657 7.07637 74.8734 7.29913 74.8736 7.53144V14.9292C74.8729 15.3189 75.0211 15.6942 75.2884 15.9779L77.0362 17.8521C77.3194 18.1556 77.4757 18.5559 77.4731 18.971V19.3293H83.176V17.3759C83.1738 16.4298 82.7855 15.5257 82.1006 14.8728L78.8287 11.7569C78.6896 11.6194 78.5019 11.5422 78.3063 11.5422C78.1108 11.5422 77.9232 11.6194 77.7841 11.7569C77.6393 11.9019 77.5582 12.0983 77.5582 12.3032C77.5582 12.5078 77.6393 12.7042 77.7841 12.8494L79.7631 14.842L79.147 15.4582L77.1679 13.4783C76.8591 13.1693 76.6856 12.7505 76.6856 12.3137C76.6856 11.877 76.8591 11.4582 77.1679 11.1494C77.4661 10.8486 77.8707 10.6773 78.2942 10.6726C78.7177 10.6678 79.1262 10.8299 79.4313 11.1236L82.7041 14.2387C83.5595 15.0588 84.0452 16.1909 84.0499 17.376V19.5607C84.093 19.5912 84.1338 19.6247 84.172 19.6614C84.3706 19.8598 84.4835 20.1282 84.4868 20.4089V22.563C84.4868 22.8043 84.2912 23 84.0499 23C83.8086 23 83.6129 22.8043 83.6129 22.563V20.4089C83.6131 20.3568 83.5925 20.3067 83.5556 20.2698C83.5189 20.2327 83.4688 20.2119 83.4167 20.2119H77.2549C77.2028 20.2117 77.1529 20.2324 77.1158 20.269C77.0795 20.3049 77.0591 20.3537 77.0587 20.4048V22.563C77.0587 22.8043 76.863 23 76.6217 23C76.3804 23 76.1848 22.8043 76.1848 22.563V20.4089C76.1857 20.1253 76.2991 19.8535 76.4996 19.6528C76.5378 19.6163 76.5786 19.5826 76.6217 19.5521V18.971C76.6209 18.7793 76.5474 18.5949 76.4161 18.4555L74.6683 16.5815C74.2411 16.1371 74.0017 15.5452 74 14.9292V7.53149C74 7.07249 74.1804 6.63181 74.5025 6.30492C74.8245 5.97779 75.2622 5.79069 75.721 5.78365Z"/>
</mask>
<path d="M87.5648 1.00021C88.3195 0.991045 89.0479 1.27799 89.5937 1.79941C90.1397 2.32081 90.4596 3.03536 90.485 3.78987C90.5105 4.54417 90.2394 5.27861 89.7299 5.83576L85.6838 10.2402C85.6011 10.3299 85.4846 10.381 85.3625 10.381C85.2404 10.381 85.124 10.3299 85.0412 10.2402L80.9909 5.83576C80.4751 5.27181 80.2043 4.52625 80.2381 3.76275C80.2717 2.99946 80.6068 2.28041 81.1701 1.76411H81.1787C81.7427 1.24815 82.4884 0.977192 83.2519 1.01075C84.0156 1.0443 84.7346 1.37982 85.2512 1.94318L85.3604 2.061L85.4697 1.93811C86.0084 1.3494 86.7668 1.00975 87.5648 1.00021ZM87.5502 1.91077C87.0096 1.90941 86.4913 2.12554 86.1121 2.51082L85.6752 2.98269C85.5925 3.07242 85.476 3.12353 85.3539 3.12353C85.2318 3.12353 85.1153 3.07242 85.0326 2.98269L84.5957 2.51082C84.1041 2.01085 83.3874 1.80311 82.7045 1.96286C82.0217 2.12262 81.4716 2.62668 81.2528 3.29284C81.0341 3.95921 81.1783 4.69129 81.6334 5.22462L81.6462 5.25974L85.3603 9.2793L89.0744 5.22463C89.4078 4.83352 89.5787 4.32945 89.552 3.81624C89.5252 3.30284 89.3029 2.81924 88.9305 2.46499C88.5581 2.11054 88.0642 1.91217 87.5502 1.91077ZM82.5135 2.42887C82.6397 2.42809 82.7602 2.48193 82.8437 2.57654C83.006 2.75405 82.9943 3.02968 82.8174 3.19257C82.6167 3.37203 82.4955 3.62406 82.4809 3.89284C82.4661 4.16164 82.5589 4.42517 82.7388 4.62552C82.8258 4.70921 82.8742 4.82508 82.8728 4.94563C82.8714 5.06619 82.8201 5.18088 82.7314 5.26243C82.6424 5.34396 82.5238 5.38512 82.4035 5.37634C82.2833 5.36737 82.1719 5.30904 82.0962 5.21521C81.7588 4.84595 81.5816 4.35789 81.6039 3.85811C81.6261 3.35834 81.846 2.88783 82.2148 2.55C82.2952 2.47295 82.4021 2.42965 82.5135 2.42887ZM94.9958 5.78287C95.4556 5.78873 95.8947 5.97541 96.2178 6.30272C96.5406 6.63005 96.7216 7.07151 96.7214 7.53143V14.9292C96.7228 15.5411 96.4899 16.1306 96.0703 16.5761L94.3053 18.4554C94.174 18.5949 94.1005 18.7792 94.0997 18.971V19.5521C94.1428 19.5825 94.1836 19.6163 94.2218 19.6527C94.4223 19.8535 94.5357 20.1252 94.5367 20.4088V22.563C94.5367 22.8043 94.341 22.9999 94.0997 22.9999C93.8584 22.9999 93.6627 22.8043 93.6627 22.563V20.4088C93.6629 20.3568 93.6423 20.3066 93.6054 20.2698C93.5687 20.2327 93.5186 20.2118 93.4665 20.2118H87.3047C87.2526 20.2116 87.2027 20.2323 87.1656 20.269C87.1294 20.3049 87.1089 20.3536 87.1085 20.4047V22.563C87.1085 22.8043 86.9128 22.9999 86.6715 22.9999C86.4302 22.9999 86.2346 22.8043 86.2346 22.563V20.4088C86.2356 20.1252 86.3489 19.8535 86.5494 19.6527C86.5877 19.6163 86.6284 19.5825 86.6715 19.5521V17.3673C86.6762 16.1823 87.1619 15.0501 88.0173 14.23L91.2902 11.1142C91.596 10.821 92.0047 10.6599 92.4282 10.6657C92.8517 10.6714 93.2558 10.8436 93.5535 11.145C93.8623 11.4538 94.0357 11.8728 94.0357 12.3094C94.0357 12.7461 93.8623 13.1651 93.5535 13.4739L91.5743 15.4538L90.9583 14.8376L92.9373 12.8577C93.082 12.7127 93.1632 12.5163 93.1632 12.3115C93.1632 12.1068 93.082 11.9104 92.9373 11.7652C92.7982 11.6277 92.6106 11.5507 92.4151 11.5507C92.2194 11.5507 92.0318 11.6277 91.8927 11.7652L88.6208 14.8811C87.9406 15.5338 87.5528 16.4332 87.5454 17.3758V19.3292H93.2258V18.958C93.2232 18.5429 93.3795 18.1426 93.6627 17.8391L95.4105 15.9651C95.6829 15.6879 95.8391 15.3175 95.8475 14.9291V7.53136C95.8475 7.21906 95.6809 6.93056 95.4105 6.77451C95.1402 6.61845 94.807 6.61845 94.5366 6.77451C94.2663 6.93056 94.0997 7.21907 94.0997 7.53136V9.71612C94.0997 9.95742 93.904 10.1531 93.6627 10.1531C93.4214 10.1531 93.2258 9.95742 93.2258 9.71612V7.53136C93.2254 7.06768 93.4093 6.62275 93.737 6.29481C94.0704 5.96124 94.5244 5.77663 94.9958 5.78287ZM75.721 5.78365C76.1891 5.77663 76.6405 5.95766 76.9741 6.28613C77.3077 6.61459 77.4954 7.06325 77.4954 7.53147V9.71623C77.4954 9.95753 77.2997 10.1532 77.0584 10.1532C76.8171 10.1532 76.6214 9.95753 76.6214 9.71623V7.53147C76.6216 7.3007 76.5305 7.0791 76.3681 6.91524C76.2044 6.7504 75.982 6.65735 75.7497 6.65677C75.5174 6.65619 75.2944 6.74826 75.1302 6.91231C74.9657 7.07637 74.8734 7.29913 74.8736 7.53144V14.9292C74.8729 15.3189 75.0211 15.6942 75.2884 15.9779L77.0362 17.8521C77.3194 18.1556 77.4757 18.5559 77.4731 18.971V19.3293H83.176V17.3759C83.1738 16.4298 82.7855 15.5257 82.1006 14.8728L78.8287 11.7569C78.6896 11.6194 78.5019 11.5422 78.3063 11.5422C78.1108 11.5422 77.9232 11.6194 77.7841 11.7569C77.6393 11.9019 77.5582 12.0983 77.5582 12.3032C77.5582 12.5078 77.6393 12.7042 77.7841 12.8494L79.7631 14.842L79.147 15.4582L77.1679 13.4783C76.8591 13.1693 76.6856 12.7505 76.6856 12.3137C76.6856 11.877 76.8591 11.4582 77.1679 11.1494C77.4661 10.8486 77.8707 10.6773 78.2942 10.6726C78.7177 10.6678 79.1262 10.8299 79.4313 11.1236L82.7041 14.2387C83.5595 15.0588 84.0452 16.1909 84.0499 17.376V19.5607C84.093 19.5912 84.1338 19.6247 84.172 19.6614C84.3706 19.8598 84.4835 20.1282 84.4868 20.4089V22.563C84.4868 22.8043 84.2912 23 84.0499 23C83.8086 23 83.6129 22.8043 83.6129 22.563V20.4089C83.6131 20.3568 83.5925 20.3067 83.5556 20.2698C83.5189 20.2327 83.4688 20.2119 83.4167 20.2119H77.2549C77.2028 20.2117 77.1529 20.2324 77.1158 20.269C77.0795 20.3049 77.0591 20.3537 77.0587 20.4048V22.563C77.0587 22.8043 76.863 23 76.6217 23C76.3804 23 76.1848 22.8043 76.1848 22.563V20.4089C76.1857 20.1253 76.2991 19.8535 76.4996 19.6528C76.5378 19.6163 76.5786 19.5826 76.6217 19.5521V18.971C76.6209 18.7793 76.5474 18.5949 76.4161 18.4555L74.6683 16.5815C74.2411 16.1371 74.0017 15.5452 74 14.9292V7.53149C74 7.07249 74.1804 6.63181 74.5025 6.30492C74.8245 5.97779 75.2622 5.79069 75.721 5.78365Z" fill="white" stroke="white" stroke-width="80" mask="url(#path-1-inside-1_385_232)"/>
<path d="M10.7065 9.3955C10.6145 9.5565 10.5148 9.67533 10.4075 9.752C10.3078 9.821 10.1813 9.8555 10.028 9.8555C9.867 9.8555 9.69067 9.798 9.499 9.683C9.315 9.56033 9.09267 9.42617 8.832 9.2805C8.57133 9.13483 8.26467 9.0045 7.912 8.8895C7.567 8.76683 7.15683 8.7055 6.6815 8.7055C6.25217 8.7055 5.8765 8.75917 5.5545 8.8665C5.2325 8.96617 4.96033 9.108 4.738 9.292C4.52333 9.476 4.36233 9.69833 4.255 9.959C4.14767 10.212 4.094 10.4918 4.094 10.7985C4.094 11.1895 4.20133 11.5153 4.416 11.776C4.63833 12.0367 4.92967 12.259 5.29 12.443C5.65033 12.627 6.0605 12.7918 6.5205 12.9375C6.9805 13.0832 7.452 13.2403 7.935 13.409C8.418 13.57 8.8895 13.7617 9.3495 13.984C9.8095 14.1987 10.2197 14.4747 10.58 14.812C10.9403 15.1417 11.2278 15.548 11.4425 16.031C11.6648 16.514 11.776 17.1005 11.776 17.7905C11.776 18.5418 11.6457 19.2472 11.385 19.9065C11.132 20.5582 10.7563 21.1293 10.258 21.62C9.76733 22.103 9.1655 22.4863 8.4525 22.77C7.7395 23.046 6.923 23.184 6.003 23.184C5.474 23.184 4.95267 23.1303 4.439 23.023C3.92533 22.9233 3.43083 22.7777 2.9555 22.586C2.48783 22.3943 2.047 22.1643 1.633 21.896C1.219 21.6277 0.851 21.3287 0.529 20.999L1.4375 19.5155C1.51417 19.4082 1.61383 19.32 1.7365 19.251C1.85917 19.1743 1.9895 19.136 2.1275 19.136C2.31917 19.136 2.52617 19.2165 2.7485 19.3775C2.97083 19.5308 3.23533 19.7033 3.542 19.895C3.84867 20.0867 4.20517 20.263 4.6115 20.424C5.0255 20.5773 5.52 20.654 6.095 20.654C6.97667 20.654 7.659 20.447 8.142 20.033C8.625 19.6113 8.8665 19.0095 8.8665 18.2275C8.8665 17.7905 8.75533 17.434 8.533 17.158C8.31833 16.882 8.03083 16.652 7.6705 16.468C7.31017 16.2763 6.9 16.1153 6.44 15.985C5.98 15.8547 5.51233 15.7128 5.037 15.5595C4.56167 15.4062 4.094 15.2222 3.634 15.0075C3.174 14.7928 2.76383 14.513 2.4035 14.168C2.04317 13.823 1.75183 13.3937 1.5295 12.88C1.31483 12.3587 1.2075 11.7185 1.2075 10.9595C1.2075 10.3538 1.32633 9.7635 1.564 9.1885C1.80933 8.6135 2.162 8.10367 2.622 7.659C3.082 7.21433 3.64933 6.85783 4.324 6.5895C4.99867 6.32117 5.773 6.187 6.647 6.187C7.62833 6.187 8.533 6.34033 9.361 6.647C10.189 6.95367 10.8943 7.383 11.477 7.935L10.7065 9.3955ZM29.2405 14.6855C29.2405 15.9045 29.0374 17.0238 28.631 18.0435C28.2247 19.0632 27.6535 19.941 26.9175 20.677C26.1815 21.413 25.296 21.9842 24.261 22.3905C23.226 22.7968 22.076 23 20.811 23H14.4745V6.371H20.811C22.076 6.371 23.226 6.578 24.261 6.992C25.296 7.39833 26.1815 7.9695 26.9175 8.7055C27.6535 9.43383 28.2247 10.3078 28.631 11.3275C29.0374 12.3472 29.2405 13.4665 29.2405 14.6855ZM26.0665 14.6855C26.0665 13.7732 25.9439 12.9567 25.6985 12.236C25.4609 11.5077 25.112 10.8943 24.652 10.396C24.1997 9.89 23.6477 9.50283 22.996 9.2345C22.352 8.96617 21.6237 8.832 20.811 8.832H17.5795V20.539H20.811C21.6237 20.539 22.352 20.4048 22.996 20.1365C23.6477 19.8682 24.1997 19.4848 24.652 18.9865C25.112 18.4805 25.4609 17.8672 25.6985 17.1465C25.9439 16.4182 26.0665 15.5978 26.0665 14.6855ZM43.0026 8.9125H37.9886V23H34.8951V8.9125H29.8811V6.371H43.0026V8.9125ZM60.4756 14.6855C60.4756 15.9045 60.2725 17.0353 59.8661 18.078C59.4675 19.113 58.9001 20.01 58.1641 20.769C57.4281 21.528 56.5426 22.1222 55.5076 22.5515C54.4726 22.9732 53.3226 23.184 52.0576 23.184C50.8003 23.184 49.6541 22.9732 48.6191 22.5515C47.5841 22.1222 46.6948 21.528 45.9511 20.769C45.2151 20.01 44.644 19.113 44.2376 18.078C43.8313 17.0353 43.6281 15.9045 43.6281 14.6855C43.6281 13.4665 43.8313 12.3395 44.2376 11.3045C44.644 10.2618 45.2151 9.361 45.9511 8.602C46.6948 7.843 47.5841 7.25267 48.6191 6.831C49.6541 6.40167 50.8003 6.187 52.0576 6.187C52.901 6.187 53.6945 6.28667 54.4381 6.486C55.1818 6.67767 55.8641 6.95367 56.4851 7.314C57.1061 7.66667 57.662 8.09983 58.1526 8.6135C58.651 9.1195 59.0726 9.68683 59.4176 10.3155C59.7626 10.9442 60.0233 11.6265 60.1996 12.3625C60.3836 13.0985 60.4756 13.8728 60.4756 14.6855ZM57.3131 14.6855C57.3131 13.7732 57.1905 12.9567 56.9451 12.236C56.6998 11.5077 56.351 10.8905 55.8986 10.3845C55.4463 9.8785 54.8943 9.49133 54.2426 9.223C53.5986 8.95467 52.8703 8.8205 52.0576 8.8205C51.245 8.8205 50.5128 8.95467 49.8611 9.223C49.2171 9.49133 48.6651 9.8785 48.2051 10.3845C47.7528 10.8905 47.404 11.5077 47.1586 12.236C46.9133 12.9567 46.7906 13.7732 46.7906 14.6855C46.7906 15.5978 46.9133 16.4182 47.1586 17.1465C47.404 17.8672 47.7528 18.4805 48.2051 18.9865C48.6651 19.4848 49.2171 19.8682 49.8611 20.1365C50.5128 20.4048 51.245 20.539 52.0576 20.539C52.8703 20.539 53.5986 20.4048 54.2426 20.1365C54.8943 19.8682 55.4463 19.4848 55.8986 18.9865C56.351 18.4805 56.6998 17.8672 56.9451 17.1465C57.1905 16.4182 57.3131 15.5978 57.3131 14.6855Z" fill="white"/>
</svg>
