<svg width="74" height="73" viewBox="0 0 74 73" fill="none" xmlns="http://www.w3.org/2000/svg">
<path d="M61.0605 51.5152C62.7979 51.5152 64.2626 52.1213 65.4545 53.3334C66.6464 54.5455 67.2322 55.9597 67.212 57.5758L42.8787 66.6667L21.6666 60.6061V33.3334H27.5757L49.606 41.4849C51.1817 42.1112 51.9696 43.2425 51.9696 44.8789C51.9696 45.8283 51.6262 46.6566 50.9393 47.3637C50.2524 48.0708 49.3838 48.4445 48.3333 48.4849H39.8484L34.5454 46.4546L33.5454 49.3031L39.8484 51.5152H61.0605ZM48.9393 9.78794C51.0807 7.30309 53.808 6.06067 57.1211 6.06067C59.8686 6.06067 62.1918 7.07077 64.0908 9.09097C65.9898 11.1112 66.9999 13.4344 67.1211 16.0607C67.1211 18.1415 66.111 20.6263 64.0908 23.5152C62.0706 26.4041 60.0807 28.8182 58.1211 30.7576C56.1615 32.697 53.1009 35.5758 48.9393 39.394C44.7373 35.5758 41.6464 32.697 39.6666 30.7576C37.6868 28.8182 35.6969 26.4041 33.6969 23.5152C31.6969 20.6263 30.7171 18.1415 30.7575 16.0607C30.7575 13.3132 31.7373 10.99 33.6969 9.09097C35.6565 7.19198 38.0201 6.18188 40.7878 6.06067C44.0201 6.06067 46.7373 7.30309 48.9393 9.78794ZM3.43628 33.3334H15.606V66.6667H3.43628V33.3334Z" fill="#672557"/>
</svg>
