<svg width="259" height="80" viewBox="0 0 259 80" fill="none" xmlns="http://www.w3.org/2000/svg">
<path d="M246.061 51.5152C247.798 51.5152 249.263 52.1213 250.454 53.3334C251.646 54.5455 252.232 55.9597 252.212 57.5758L227.879 66.6667L206.667 60.6061V33.3334H212.576L234.606 41.4849C236.182 42.1112 236.97 43.2425 236.97 44.8789C236.97 45.8283 236.626 46.6566 235.939 47.3637C235.252 48.0708 234.384 48.4445 233.333 48.4849H224.848L219.545 46.4546L218.545 49.3031L224.848 51.5152H246.061ZM233.939 9.78794C236.081 7.30309 238.808 6.06067 242.121 6.06067C244.869 6.06067 247.192 7.07077 249.091 9.09097C250.99 11.1112 252 13.4344 252.121 16.0607C252.121 18.1415 251.111 20.6263 249.091 23.5152C247.071 26.4041 245.081 28.8182 243.121 30.7576C241.162 32.697 238.101 35.5758 233.939 39.394C229.737 35.5758 226.646 32.697 224.667 30.7576C222.687 28.8182 220.697 26.4041 218.697 23.5152C216.697 20.6263 215.717 18.1415 215.757 16.0607C215.757 13.3132 216.737 10.99 218.697 9.09097C220.656 7.19198 223.02 6.18188 225.788 6.06067C229.02 6.06067 231.737 7.30309 233.939 9.78794ZM188.436 33.3334H200.606V66.6667H188.436V33.3334Z" fill="white"/>
<path d="M26.6322 36.7645C26.4669 35.0978 25.7576 33.8031 24.5041 32.8802C23.2507 31.9573 21.5496 31.4959 19.4008 31.4959C17.9408 31.4959 16.708 31.7025 15.7025 32.1157C14.697 32.5152 13.9256 33.073 13.3884 33.7893C12.865 34.5055 12.6033 35.3182 12.6033 36.2273C12.5758 36.9849 12.7342 37.646 13.0785 38.2108C13.4366 38.7755 13.9256 39.2645 14.5455 39.6777C15.1653 40.0772 15.8815 40.4284 16.6942 40.7314C17.5069 41.0207 18.3747 41.2686 19.2975 41.4752L23.0992 42.3843C24.9449 42.7975 26.6391 43.3485 28.1818 44.0372C29.7245 44.7259 31.0606 45.573 32.1901 46.5785C33.3196 47.584 34.1942 48.7686 34.8141 50.1323C35.4477 51.4959 35.7714 53.0593 35.7851 54.8223C35.7714 57.4119 35.1102 59.6571 33.8017 61.5579C32.5069 63.4449 30.6336 64.9119 28.1818 65.9587C25.7438 66.9918 22.803 67.5083 19.3595 67.5083C15.9435 67.5083 12.9683 66.9849 10.4339 65.938C7.91322 64.8912 5.94353 63.3416 4.52479 61.2893C3.11983 59.2232 2.38292 56.6681 2.31405 53.624H10.9711C11.0675 55.0427 11.4738 56.2273 12.1901 57.1777C12.9201 58.1144 13.8912 58.8237 15.1033 59.3058C16.3292 59.7741 17.7135 60.0083 19.2562 60.0083C20.7714 60.0083 22.0868 59.7879 23.2025 59.3471C24.332 58.9064 25.2066 58.2934 25.8264 57.5083C26.4463 56.7232 26.7562 55.821 26.7562 54.8017C26.7562 53.8513 26.4738 53.0524 25.9091 52.405C25.3581 51.7576 24.5455 51.2066 23.4711 50.7521C22.4105 50.2975 21.1088 49.8843 19.5661 49.5124L14.9587 48.3554C11.3912 47.4876 8.57438 46.1309 6.50826 44.2852C4.44215 42.4394 3.41598 39.9532 3.42975 36.8265C3.41598 34.2645 4.0978 32.0262 5.47521 30.1116C6.86639 28.197 8.77411 26.7025 11.1983 25.6281C13.6226 24.5537 16.3774 24.0166 19.4628 24.0166C22.6033 24.0166 25.3444 24.5537 27.686 25.6281C30.0413 26.7025 31.8733 28.197 33.1818 30.1116C34.4904 32.0262 35.1653 34.2438 35.2066 36.7645H26.6322ZM56.8027 66.9091H41.8027V24.5951H56.9267C61.1829 24.5951 64.8468 25.4422 67.9184 27.1364C70.99 28.8168 73.3523 31.2342 75.0052 34.3885C76.6718 37.5427 77.5052 41.3168 77.5052 45.7108C77.5052 50.1185 76.6718 53.9064 75.0052 57.0744C73.3523 60.2425 70.9762 62.6736 67.8771 64.3678C64.7917 66.062 61.1002 66.9091 56.8027 66.9091ZM50.749 59.2438H56.4308C59.0754 59.2438 61.2999 58.7755 63.1043 57.8389C64.9225 56.8885 66.2862 55.4215 67.1952 53.438C68.1181 51.4408 68.5795 48.865 68.5795 45.7108C68.5795 42.584 68.1181 40.029 67.1952 38.0455C66.2862 36.062 64.9294 34.602 63.125 33.6653C61.3206 32.7287 59.0961 32.2604 56.4514 32.2604H50.749V59.2438ZM80.5888 31.9711V24.5951H115.341V31.9711H102.386V66.9091H93.5434V31.9711H80.5888ZM158.017 45.7521C158.017 50.3664 157.142 54.292 155.393 57.529C153.657 60.7659 151.288 63.2383 148.285 64.9463C145.296 66.6405 141.935 67.4876 138.202 67.4876C134.442 67.4876 131.067 66.6336 128.079 64.9256C125.09 63.2177 122.727 60.7452 120.992 57.5083C119.256 54.2714 118.388 50.3526 118.388 45.7521C118.388 41.1378 119.256 37.2121 120.992 33.9752C122.727 30.7383 125.09 28.2728 128.079 26.5785C131.067 24.8705 134.442 24.0166 138.202 24.0166C141.935 24.0166 145.296 24.8705 148.285 26.5785C151.288 28.2728 153.657 30.7383 155.393 33.9752C157.142 37.2121 158.017 41.1378 158.017 45.7521ZM148.946 45.7521C148.946 42.7631 148.499 40.2425 147.603 38.1901C146.722 36.1378 145.475 34.5813 143.864 33.5207C142.252 32.4601 140.365 31.9298 138.202 31.9298C136.04 31.9298 134.153 32.4601 132.541 33.5207C130.93 34.5813 129.676 36.1378 128.781 38.1901C127.899 40.2425 127.459 42.7631 127.459 45.7521C127.459 48.7411 127.899 51.2617 128.781 53.3141C129.676 55.3664 130.93 56.9229 132.541 57.9835C134.153 59.0441 136.04 59.5744 138.202 59.5744C140.365 59.5744 142.252 59.0441 143.864 57.9835C145.475 56.9229 146.722 55.3664 147.603 53.3141C148.499 51.2617 148.946 48.7411 148.946 45.7521Z" fill="white"/>
</svg>
